<svg viewBox="0 0 39.0634 47.7564" xmlns="http://www.w3.org/2000/svg" xmlns:xlink="http://www.w3.org/1999/xlink" width="39.063416" height="47.756363" fill="none" customFrame="#000000">
	<g id="Group">
		<path id="Vector" d="M9.06172 11.4473C6.83594 11.1902 3.68594 9.22696 2.12188 7.12696C1.21953 5.92383 0.689063 4.77539 0.229688 3.04727L0 2.18321L0.0109375 1.26446C0.021875 0.761332 0.0492188 0.291019 0.0765625 0.214457C0.147656 0.0339881 0.284375 0.00664432 1.24688 0.00117557C2.04531 -0.00429318 2.09453 0.00117558 2.77813 0.203519C4.60469 0.733988 5.94453 1.53243 6.89609 2.66446C7.12578 2.94336 7.47031 3.31524 7.65078 3.50118C8.25235 4.0918 9.02344 5.4043 9.45 6.5418C9.87656 7.68477 10.068 8.74571 10.1227 10.2551L10.1555 11.2231L10.0133 11.3652C9.85469 11.5238 9.76719 11.5293 9.06172 11.4473Z" fill="rgb(112.625,112.625,112.625)" fill-rule="nonzero" transform="matrix(1,0,0,-1,19.1353,11.4995)" />
		<path id="Vector" d="M27.6884 36.4002C26.6056 36.3455 23.6907 35.5361 21.5962 34.7158C20.3274 34.2182 20.3274 34.2182 20.0759 34.1744C19.6384 34.1033 18.5665 34.415 16.7235 35.1588C15.7446 35.5471 14.7384 35.8424 13.2509 36.1815C12.6274 36.3182 11.5939 36.3346 11.1454 36.2088C10.9649 36.1596 10.3962 36.0447 9.88214 35.9572C8.77745 35.7604 8.15401 35.569 7.32276 35.1588C4.8126 33.9338 3.10089 32.1729 1.74464 29.4166C1.14307 28.2025 0.700105 27.0158 0.37198 25.7525C-0.114739 23.8768 -0.125676 20.2783 0.350105 18.0963C0.404792 17.8283 0.454011 17.5111 0.454011 17.3854C0.454011 17.1229 0.50323 16.926 0.962605 15.1158C1.38917 13.4424 1.34542 13.5791 2.16026 11.5338C3.30323 8.6627 3.66417 8.02833 5.99932 4.80723C6.95635 3.48926 7.44307 2.8877 8.14854 2.1713C8.88682 1.41661 9.48292 0.979108 10.3251 0.563483C11.2767 0.0986388 11.6923 -0.00526744 12.5673 0.000201308C13.6884 0.000201308 14.5907 0.229889 16.3079 0.951764C17.3907 1.40567 17.4618 1.42755 19.4306 1.83223C20.0212 1.95801 20.5681 1.94708 21.3993 1.81036C21.6837 1.76661 22.1103 1.70098 22.3399 1.66817C22.8048 1.60255 23.2751 1.44942 24.4892 0.962701C25.9548 0.372076 26.9884 0.109576 28.0712 0.0439513C29.6462 -0.0544862 31.1665 0.645514 32.7907 2.20411C34.4478 3.80645 35.9954 5.99942 37.5595 8.95801C37.9806 9.75645 38.6532 11.3916 38.7681 11.8838C38.8173 12.0807 38.8993 12.3268 38.9595 12.4252C39.0142 12.5236 39.0634 12.6604 39.0634 12.7205C39.0634 12.9174 38.6642 13.2291 37.9587 13.5846C36.6298 14.2682 35.3228 15.4385 34.4423 16.7565C33.8134 17.7025 33.179 19.119 33.0204 19.9557C32.7524 21.3338 32.6759 22.8432 32.829 23.8932C32.8673 24.1666 33.004 24.7408 33.1353 25.1783C33.6985 27.076 34.0868 27.8361 34.9673 28.7768C35.2353 29.0557 35.454 29.3127 35.454 29.3346C35.454 29.4275 36.7939 30.5486 37.122 30.7291C37.3024 30.833 37.5321 30.9916 37.6306 31.09C37.9314 31.3854 37.8876 31.5002 37.1329 32.3861C36.1212 33.5729 34.847 34.5463 33.3485 35.2736C32.4134 35.7275 31.7681 35.9518 30.8657 36.1377C29.9415 36.3346 28.5634 36.4494 27.6884 36.4002Z" fill="rgb(112.625,112.625,112.625)" fill-rule="nonzero" transform="matrix(1,0,0,-1,0,47.7564)" />
	</g>
</svg>
